<?xml version="1.0" encoding="utf-8"?>
<!-- Generator: Adobe Illustrator 29.5.1, SVG Export Plug-In . SVG Version: 9.03 Build 0)  -->
<svg version="1.0" id="Capa_1" xmlns="http://www.w3.org/2000/svg" xmlns:xlink="http://www.w3.org/1999/xlink" x="0px" y="0px"
	 viewBox="0 0 114.73 86.67" style="enable-background:new 0 0 114.73 86.67;" xml:space="preserve">
<style type="text/css">
	.st0{fill:none;stroke:#000000;stroke-miterlimit:10;}
	.st1{stroke:#000000;stroke-miterlimit:10;}
</style>
<g transform="translate(-5.000000,87.909887) scale(0.100000,-0.100000)">
	<path d="M1140,155c-31,28-26,116,15,265c44,160,52,224,32,272c-19,46-52,67-113,74c-40,5-58,1-99-20l-50-26l-22,25
		c-15,15-39,26-68,31c-70,10-275-1-321-18l-41-15l5,47c4,42,1,49-23,68c-32,26-81,28-140,7c-68-24-122-105-81-121c8-3,28,2,45,11
		c33,17,51,13,51-10c0-22-38-37-99-39l-49.7-0.89l-19.68-29.77c0-28,19.39-43.34,47.39-62.34c19-13,27-23,19-23c-23,0-31-31-14-48
		c13-13,8-23-46-81C71,356,51,311,85,276c9-9,11-17,5-21c-13-8-13-52,0-60c5-3-2-22-15-42c-14-20-25-44-25-54c0-26,35-59,62-58
		c40,1,202,26,219,33c12,5,18,1,22-13c3-12,16-22,33-26c16-3,45-11,66-17c43-13,97-4,153,25c34,18,54,20,143,18c95-2,108,0,159,24
		c32,16,62,40,73,57c18,30,18,30,29,9c16-29,63-51,111-51c32,0,40,4,40,18C1160,129,1151,145,1140,155z M218,558c-6,6,2,13,22,20
		c37,13,33,27-10,35c-33,7-57,44-46,72c5,13,14,15,49,10c76-12,159,42,126,81c-15,19-27,18-73-7c-26-14-42-17-49-10
		c-17,17,21,61,76,87c64,29,110,31,137,4c12-12,20-33,20-51c0-27-16-48-102-135C267,560,237,539,218,558z M471,25c-25,7-25,8,14,19
		c59,18,97,41,133,77c37,38,79.04,128.67,58,163c-25.35,41.36-31.81,36.2-16.69-9.79C682.9,202.45,601,101,518,67
		c-82-34-170-28-149,11c5,9,33,35,61,57c57,45,100.15,121.27,100.15,173.27l0.49,27.41L526,318c-22-61-62-121-120-178
		c-31-30-56-51-56-47c0,4-9,3-20-3c-11-6-65-17-121-25C92,49,70,54,70,100c0,44,31,70,84,70c31,0,64,10,110,34c40,21,68,30,72,24
		c9-14-26-58-66-85c-41-28-19-30,25-3c52,32,80,110,39,110c-7,0-34-13-60-30c-79-50-184-51-184-1c0,11,18,34,40,51
		c42,33,52,60,23,60c-16,0-16-2-3-10c13-9,12-12-4-25c-42-32-71-12-54,35c16,43,213,264,303,340c103,85,152,100,332,97
		c115-2,134-5,153-22c35-32,50-70,50-130c0-62-17-104-52-127c-40-25-121-51-184-57l-61-6l20,26c13,18,32,29,60,33
		c97,16,167,72,167,134c0,79-90,102-244,62c-108-27-195-72-262-133c-86-78-102-136-44-167c21-11,36,3,32,32c-5,30,16,29,48-3
		c30-31,33-31,93-25c160,18,192,17,215-4c31-29,47-95,33-141C715,118,562,2,471,25z M346,408c4-6,1-9-7-6c-8,2-15,16-17,29
		c-7,62,199,200,350,234c68,16,152,13,174-6c32-26-17-111-80-140c-46-21-96-25-96-7c0,23-34,48-65,48c-18,0-61-9-96-20
		c-49-15-76-32-116-71C364,441,343,413,346,408z M570,515c16-20,7-31-45-50c-67.9-25-107,8-37,44C533,533,554,535,570,515z M418,471
		l19,22l-4.64-16.01c1.02-1.22,1.47-2.89,1.17-4.58c-0.14-0.77-0.2-1.78-0.22-2.84c1.07-0.14,2.11-0.52,2.81-1.32
		c2.14-2.48,3.94-5.19,5.49-8.07c1.23-2.28,2.34-4.62,3.56-6.91c0.57-1.08,1.17-2.14,1.82-3.18c0.21-0.34,0.44-0.66,0.66-0.99
		c0.14-0.07,0.26-0.17,0.4-0.24c0.55-0.3,1.12-0.58,1.68-0.85c0.31-0.15,0.63-0.28,0.94-0.43c2.34-0.9,4.7-1.68,7.15-2.21
		c1.6-0.35,2.93-0.59,4.21-1.76c0.16-0.15,0.31-0.31,0.47-0.47c5.16-0.33,10.79-0.67,17.5-1.16c76-4,136,48,98,86c-9,9-4,12,23,12
		c19,0,40-5,47-12c21-21,13-43-26-81c-60-58-162-77-202-37C395,435,395,442,418,471z M996,207c-10-40-56-88-105-109
		c-48-20-177-36-206-24c-15,5-14,9,7,25c13,11,37,45,53,78c50,98,36,178-38,223l-32,20h35c20,0,60,9,90,20c67,24,83,24,121,4
		C971,418,1015,281,996,207z M1110,157c-32,30-37,117-14,243c9,52,19,125,21,162c4,57,2,69-16,87c-26,26-98,29-127,5
		c-18-14-18-15,4-4c39,19,92,8,115-22l20-27l-26-143l-19.75-104.58c-0.01-6.84-0.18-13.69-0.34-20.53c0.97-0.81,1.63-2.02,1.63-3.66
		c0.03-23.25,1.29-46.47,2.58-69.68c0.09-1.56-0.45-2.71-1.29-3.51v-36.49c0-1.46-0.55-2.54-1.35-3.33
		c0.01-0.49,0.03-0.97,0.03-1.46c0.96-3.61,1.82-7.25,2.57-10.91c0.66-1.69,1.3-3.37,1.95-5.06c0.75-0.64,1.39-1.44,1.78-2.42
		c3.51-8.74,7.42-17.32,11.24-25.93c0.12-0.1,0.27-0.14,0.38-0.25c4.44-4.48,7.48-10.31,9.03-16.4c0.69-2.72-0.87-5.3-3.49-6.15
		c-2.53-0.82-5.51,0.96-6.15,3.49c-0.03,0.14-0.1,0.26-0.13,0.4c-1.69,0.43-3.04,1.74-3.74,3.47c-0.54,1.33-1.16,2.63-1.71,3.96
		c-1.25,1.41-2.64,3.04-4.24,5.05c-7.58,9.27-13.65,24.88-14.79,37.95c-1.02,2.49-2.08,4.95-3.27,7.34c-0.93,1.87-0.8,3.88,0.3,5.43
		c-0.7,2.46-1.39,4.92-2.1,7.38c-0.32,1.13-0.14,2.22,0.3,3.21c-0.01,0.03-0.04,0.04-0.04,0.07c-0.31,0.6-0.46,1.24-0.43,1.93v2.58
		c0,0.19,0.13,0.35,0.15,0.54c-0.29,1.96,0.48,3.87,2.33,5.07c0.41,0.27,0.91,0.38,1.39,0.49v40.35c0,0.66,0.16,1.21,0.35,1.74
		c-0.28,5.48-0.6,10.96-0.83,16.44c-1.13,0.8-1.98,2.02-2.1,3.76c-1.27,18.48-0.02,36.99,0,55.48c0,3.21,2.49,4.82,4.99,4.83
		L1065,412c7,125-1,175-31,194c-20,14-25,14-49-2c-29-19-27-31,3-15c15,8,23,6,38-10c17-19,19-40,20-210c1-157,4-193,18-214
		c9-14,12-25,7-25c-1.5,0-3.26,0.6-5.06,1.4c-1.54-0.84-3.5-1.03-4.91-0.03c-0.46,0.33-0.94,0.62-1.41,0.94
		c-6.42,0.72-12.75,2.95-18.13,6.44c-1.07,0.69-2.07,1.51-3.08,2.3c-0.68,0.06-1.34,0.23-1.9,0.64c-1.04,0.75-1.91,1.73-2.89,2.57
		c-3.57,0.72-7.15,3.05-9.61,6.74c-2.61,4.17-3.19,6.33-1.98,6.82c-1.68,2.74-3.15,5.57-4.37,8.51c-5.65,9.75-9.14,20.65-6.14,31.21
		c-1.23,8.61-1.69,17.39-0.52,25.93c0.05,0.34,0.26,0.59,0.39,0.89c-0.25,9.34-0.38,20.21-0.38,32.65c-1,50-6,104-12,120
		c-15,40-57,81-91,88l-30,7l20,21c36,40,45,70,44,145l-2,73l43,19c23,11,64,20,93,20c42,0,55-5,75-26c37-40,33-153-11-304
		c-38-128-46-233-21-266C1129,141,1127,142,1110,157z"/>
	<path d="M374,301c4-5,0-12-6-14c-8-3-6-6,5-6c9-1,17,6,17,14s-5,15-11,15C374,310,371,306,374,301z"/>
	<path d="M272,183c-5-9-40-24-78-34c-53-14-61-18-36-18c42-1,132,37,132,55C290,205,283,204,272,183z"/>
	<path d="M994,514c-22,8-31,7-17-2c0.66-0.38,1.35-0.94,2.05-1.5c0.19-0.07,0.37-0.08,0.57-0.17c1.11-0.54,2.17-1.07,3.25-1.6
		c0.56-0.07,1.12-0.11,1.68-0.2c2.89-0.48,5.59-1.67,7.97-3.36c1.56-1.11,2.18-2.56,2.25-3.99c1.07-1.39,1.94-2.94,2.66-4.56
		c1.16-1.54,2.19-3.19,2.92-4.98c0.72-1.75,1.15-3.59,1.45-5.46c0.13-0.38,0.38-0.71,0.48-1.09c1.1-3.97,0.88-8.28,0.13-12.37
		c-0.04-0.36-0.03-0.72-0.07-1.07L1009,455v26C1010,497,1003,510,994,514z"/>
	<path d="M820,396c0-10,13-16,42-18c57-4,83-40,83-113c0-43-5-59-25-80c-31-34-60-45-83-33c-10,5-23,7-30,5c-22-7,52-38,77-31
		c36,9,73,53,86,103c24,92-30,181-111,181C832,410,820,406,820,396z"/>
	<path d="M860,245c-16-19-5-47,17-43c11,2,18,12,18,27C895,258,878,266,860,245z M883.35,210.9c-1.53-2.34-4.34-3.11-6.84-1.79
		c-0.82,0.43-1.34,1.1-1.73,1.83c-0.48,0.28-0.99,0.45-1.42,0.79c-0.07,0.03-0.14,0.08-0.21,0.11c-0.16,0.07-0.35,0.09-0.5,0.17
		c-0.1,0.05-0.15,0.16-0.25,0.22c-0.39,0.25-0.71,0.55-1.02,0.89c-0.07,0.08-0.17,0.14-0.23,0.23c-0.39,0.49-0.7,1.04-0.8,1.65
		c-0.14,0.85-0.28,1.71-0.4,2.58c-0.52,2.22-0.64,4.48-0.15,6.78c1.15,5.43,4.81,10.89,9.63,13.7c2.79,1.63,6.48,0.12,7.34-2.99
		C888.99,227.05,887.95,217.93,883.35,210.9z"/>
</g>
<path class="st0" d="M103.26,22.78c1.8,1.26,2.7,3.51,2.85,5.71c0.15,2.2-0.09,4.38-0.6,6.52"/>
<path class="st0" d="M102.19,53.54c-0.32,6.77-1.07,13.47,2.32,19.81"/>
<path class="st0" d="M100.74,51.47c0.22,2.84-0.23,6.38-0.01,9.21c0.3,3.95-0.06,7.84,1.63,11.43"/>
<path class="st0" d="M95.71,70.09c0.89,1.22,1.52,2.62,2.5,3.77c0.98,1.15,2.47,2.04,3.95,1.72"/>
<path class="st0" d="M13.16,63.82c-0.15-0.17-0.2,0.36-0.02,0.22c0.04-0.34-0.68-0.17-0.49,0.11c0.21,0.32,0.83-0.05,0.65-0.39
	c-0.33-0.24-0.89-0.05-0.99,0.36c0.33,0.47,1.25-0.06,1-0.59c-0.35,0-0.68,0.19-0.87,0.49"/>
<path class="st0" d="M17.35,61.58c-0.43,0.03-0.8,0.45-0.77,0.88c0.45,0.05,0.86-0.44,0.75-0.87c-0.26-0.11-0.58,0.22-0.46,0.48"/>
<path class="st0" d="M20.95,58.91c0.43,0.18,0.62,0.76,0.4,1.17c-0.23,0.4-0.82,0.54-1.2,0.28"/>
<path class="st1" d="M25.61,57.57c-0.23,0.06-0.43,0.2-0.57,0.39c0.31,0.72,1.59,0.62,1.78-0.14c-0.2-0.24-0.4-0.48-0.6-0.72
	c-0.62-0.17-1.26,0.58-0.99,1.16"/>
<path class="st0" d="M13.48,17.79c-1.63,0.14-2.59,2.41-1.56,3.68"/>
<path class="st0" d="M39.22,39.53c-0.65,1.47,0.43,3.42,2.02,3.64"/>
<path class="st0" d="M95.63,65.19c-0.11,2.18,0,4.29,0.98,6.29"/>
<path class="st0" d="M99.98,75.05c0.92-0.09,1.89,0.23,2.76-0.07c0.17-0.06,0.36-0.23,0.27-0.38"/>
<path class="st0" d="M102,71.27c0.18,0.33,0.54,0.98,0.8,1.25c0.27,0.28,0.61,0.5,0.98,0.61"/>
</svg>
