<?xml version="1.0" standalone="no"?>
<!DOCTYPE svg PUBLIC "-//W3C//DTD SVG 20010904//EN"
 "http://www.w3.org/TR/2001/REC-SVG-20010904/DTD/svg10.dtd">
<svg version="1.0" xmlns="http://www.w3.org/2000/svg"
 width="70.157785pt" height="83.727901pt" viewBox="0 0 70.157785 83.727901"
 preserveAspectRatio="xMidYMid meet">
<metadata>
Created by potrace 1.12, written by Peter Selinger 2001-2015
</metadata>
<g transform="translate(0.000000,87.845317) scale(0.100000,-0.100000)"
fill="#000000" stroke="none">
<path d="M330 865 c-32 -8 -76 -12 -106 -8 -42 4 -59 1 -91 -16 -48 -27 -83
-78 -90 -130 -5 -33 -1 -44 19 -64 l24 -24 -28 -32 c-31 -35 -37 -85 -14 -117
13 -16 13 -22 0 -41 -22 -34 -44 -131 -44 -191 0 -76 17 -125 57 -164 l34 -33
217 -3 c241 -3 275 3 330 59 55 57 85 252 46 307 -15 21 -15 25 0 41 22 24 23
274 2 326 -18 43 -88 80 -177 95 -80 13 -110 12 -179 -5z m185 -29 c71 -15 91
-25 125 -61 24 -25 25 -34 28 -161 3 -95 0 -139 -8 -150 -22 -26 -100 -13
-100 17 0 3 14 23 30 44 25 32 30 47 30 94 0 67 -15 93 -70 121 -42 21 -134
27 -160 10 -18 -12 -11 -13 60 -11 64 2 115 -23 130 -65 17 -43 12 -99 -11
-127 -11 -15 -23 -42 -26 -61 -3 -22 -13 -37 -29 -44 -47 -22 -57 -53 -52
-166 4 -125 16 -146 83 -146 26 0 48 6 55 15 15 18 3 19 -35 5 -41 -16 -71 21
-80 98 -10 84 1 137 32 162 33 26 102 27 134 1 19 -16 22 -27 22 -83 -3 -134
-51 -225 -131 -248 -20 -5 -122 -10 -225 -10 -217 0 -237 5 -268 73 -10 23
-19 63 -19 90 0 46 0 47 33 47 42 0 53 8 72 53 10 25 20 35 30 31 26 -10 62 5
68 28 4 12 9 19 13 15 12 -11 -25 -57 -46 -57 -15 0 -22 -9 -27 -30 -3 -17
-10 -33 -14 -36 -12 -7 -11 -44 1 -44 6 0 10 9 10 20 0 11 5 20 11 20 7 0 9
10 5 25 -6 22 -2 27 22 36 17 6 37 25 48 45 17 31 22 34 49 28 83 -18 129 -84
58 -84 -39 0 -82 -31 -103 -75 -24 -50 -25 -68 -3 -101 14 -22 14 -27 2 -34
-7 -5 -11 -11 -8 -14 3 -3 14 0 24 8 17 12 17 15 2 37 -23 32 -21 70 6 110 26
39 60 59 100 59 32 0 37 -19 5 -21 l-23 -2 23 -4 c19 -4 22 -10 22 -57 0 -64
-13 -79 -67 -74 -34 3 -38 6 -41 34 -2 23 5 39 26 62 17 18 26 32 22 32 -18 0
-60 -63 -60 -90 0 -35 20 -52 65 -52 39 0 42 -4 19 -36 -8 -12 -11 -22 -5 -22
18 0 53 90 58 148 6 72 -14 139 -49 165 -19 14 -48 21 -100 24 -65 4 -77 2
-108 -19 -19 -13 -39 -37 -45 -53 -16 -47 -24 -55 -56 -55 -29 0 -30 1 -23 38
10 60 44 112 71 112 13 0 43 10 66 22 23 12 49 24 57 28 19 9 24 43 10 69 -11
22 -54 29 -65 12 -3 -6 7 -9 22 -8 25 2 28 -1 28 -27 0 -24 -6 -31 -30 -39
-16 -5 -37 -16 -46 -23 -37 -32 -99 -2 -99 48 0 9 27 45 60 78 33 34 74 88 90
121 35 68 60 87 138 104 74 17 95 17 167 1z m-280 -17 c5 -7 -4 -8 -27 -4 -28
5 -38 2 -60 -20 -15 -15 -32 -42 -38 -62 -10 -29 -9 -37 6 -54 9 -10 14 -22
11 -25 -8 -8 -57 23 -57 36 0 28 36 93 64 115 32 26 89 34 101 14z m-20 -19
c9 -15 -49 -114 -68 -118 -38 -8 -33 63 8 104 25 25 50 31 60 14z m3 -402 c-6
-17 -36 -34 -45 -24 -4 4 1 14 11 22 24 17 39 18 34 2z"/>
<path d="M293 663 c-40 -2 -73 -6 -73 -9 0 -3 5 -14 10 -25 14 -25 50 -24 100
1 35 18 63 43 43 38 -4 -1 -41 -4 -80 -5z m13 -28 c-22 -17 -56 -20 -56 -6 0
6 15 12 33 14 17 2 34 4 37 5 3 1 -4 -5 -14 -13z"/>
<path d="M562 318 c-29 -29 -3 -69 36 -53 16 7 15 8 -3 14 -19 8 -19 8 0 19
17 10 18 13 5 22 -19 13 -24 12 -38 -2z"/>
</g>
</svg>
