<?xml version="1.0" encoding="utf-8"?>
<!-- Generator: Adobe Illustrator 29.5.1, SVG Export Plug-In . SVG Version: 9.03 Build 0)  -->
<svg version="1.0" id="Capa_1" xmlns="http://www.w3.org/2000/svg" xmlns:xlink="http://www.w3.org/1999/xlink" x="0px" y="0px"
	 viewBox="0 0 26.76 75.82" style="enable-background:new 0 0 26.76 75.82;" xml:space="preserve">
<style type="text/css">
	.st0{fill:none;stroke:#000000;stroke-miterlimit:10;}
	.st1{fill:none;stroke:#000000;stroke-width:2;stroke-miterlimit:10;}
</style>
<g transform="translate(-10.021715,80.819154) scale(0.100000,-0.100000)">
	<path d="M278,420c-26,0-23,18,4,22c52,7,96,133,84,237c-8,68-27,98-71,117c-35,14-46,15-80,7c-33-9-74-43-91-76
		c-10-17-18-65-21-111c-5-94,13-140,65-166c40-19,40-24,1-41c-46-18-69-75-69-172c0-129,40-187,130-187c88,0,130,60,130,182
		C359,339,324,420,278,420z M295,760c17-19,18-22,2-55c-14-30-22-35-50-35c-40,0-57,15-57,51C190,773,260,799,295,760z M134,505
		c-14,21-16,40-11,103c2.59,32.77,5.68,58.18,9.19,76.6c0,0.29-0.07,0.55-0.02,0.86c2.07,13.31,3.8,27.51,9.53,39.57
		c2.37,6.08,5.54,11.56,9.69,16.1c0.39,0.74,0.91,1.37,1.65,1.76c2.24,2.13,4.67,4.08,7.56,5.55c0.21,0.1,0.4,0.07,0.61,0.15
		c1.99,2.1,4.05,4.1,6.12,5.85c3.12,2.64,8.68,1.12,8.54-3.54c-0.63-20.63-3.38-42.4,2.91-62.46c2.38-7.58,6.43-14.21,11.63-19.92
		c11.38-7.86,24.2-13.68,37.58-16.95c0.32-0.08,0.66-0.14,0.98-0.21c0.68,0.12,1.44,0.1,2.27-0.15
		c48.11-14.06,93.79,38.07,94.32,83.24c0.03,2.71,2.27,5,5,5h1.94c1.3,0,2.77-0.7,3.76-1.75c0.1-0.07,0.17-0.18,0.26-0.26
		c0.06-0.08,0.15-0.13,0.2-0.21c0.11-0.1,0.16-0.25,0.26-0.36c0.65-0.25,1.29-0.51,1.81-1.02c0.47-0.46,0.85-1.01,1.15-1.59
		c0.09-0.17,0.17-0.34,0.26-0.51c0.22-0.39,0.71-0.76-0.3,0.35c1.23-1.35,1.58-3.06,1.2-4.66c1.71-3.91,2.65-8.11,2.93-12.37
		c1.97-5.27,3.35-10.74,4.1-16.5c0.09-0.67,0.01-1.29-0.2-1.84C355.05,660.2,341.9,543.72,327,513c-25-47-43-58-72-43
		c-20,11-27,11-40,0C195,453,158,469,134,505z M251.53,420.9c-0.15-6.7-0.91-13.65-3.05-20.03c-1.72-5.14-4.66-11.11-10.29-12.79
		c-2.93-0.87-5.4-0.48-7.56,0.59c-2.1-2.01-5.91-2.5-7.97,0.68c-1.24,1.91-2.06,4.13-2.72,6.3c-3.82,12.4-3.95,26.77-1.91,39.5
		c0.9,5.65,2.55,11.65,6.38,16.06c3.96,4.55,9.9,5.23,15.22,2.82C251.02,448.87,251.77,431.53,251.53,420.9z M295,101
		c-11-37-98-48-125-16c-18,22,0,66,33,80c37,16,64,9,83-21C295,131,299,112,295,101z M343.57,196.9c-0.03-1.4-0.06-2.8-0.1-4.19
		c-0.23-8.26-0.52-16.37-2.09-24.52c-3.11-16.09-10.42-31.07-23.8-40.96c-2.86-2.11-6.43,0.29-7.21,3.3
		c-0.88,0.67-1.65,1.52-2.07,2.59c-2.21,5.7-4.65,11.3-7.09,16.9c-0.72,0.96-1.44,1.91-2.21,2.98c-11,15-28,27-37,28
		c-4.4,0-7.23,0.29-8.71,0.82c-11.47,0.92-22.54,1.09-34.25-1c-14.59-2.61-28.87-7.94-40.46-17.34c-0.17-0.96-0.52-1.89-1.27-2.57
		c-1.55-1.4-3.1-2.81-4.65-4.22c-0.13-0.87-0.42-1.75-1.16-2.56c-10.67-11.8-18.75-25.65-21.94-41.34
		c-0.87-4.29-7.12-4.77-9.14-1.19c-0.63,1.11-0.99,2.24-1.48,3.36c-0.53,0.41-0.99,0.9-1.42,1.48c-0.66,0.89-1.22,1.87-1.8,2.83
		c-0.39,0.3-0.77,0.62-1.1,1.04c-6.47,8.47-10.83,19.16-12.45,29.92c-0.46,2.4-0.74,4.88-0.81,7.44c-0.02,1.07,0.29,1.89,0.74,2.59
		C120.9,173.35,120,197.58,120,225c0,85,20,147,53,163c30,15,34,14,41-3c7-20,33-19,44,1c13,24,47,9,65-29
		C342.29,314.8,348.84,242.83,343.57,196.9z"/>
</g>
<path class="st0" d="M6.97,5.24C6.9,5.31,6.84,5.37,6.77,5.44"/>
<path class="st1" d="M7.97,3.93c-1.22,1.03-1.81,2.7-1.8,4.3c0.01,2.75,0.51,4.58,0.79,5.59c0.23,0.82,0.5,0.79,1,1.48
	c0.54,0.74,1.33,1.24,2.16,1.62c2.21,1.03,4.78,1.28,7.15,0.72c1.29-0.31,2.54-0.87,3.49-1.79c1.12-1.09,1.75-2.61,2.02-4.16
	c0.27-1.54,0.22-3.12,0.17-4.69c-0.03-0.75-0.09-1.58-0.64-2.08"/>
<path class="st1" d="M4.73,70.95c-1.11-1.31-0.87-3.32-0.2-4.9c1.36-3.19,3.76-4.6,7.12-5.45c2.05-0.52,5.82,0.3,7.12,1.16
	c1.45,0.97,2.34,2.27,2.61,3.1c1.05,3.22,0.25,4.3-0.79,6.19"/>
</svg>
