<?xml version="1.0" encoding="utf-8"?>
<!-- Generator: Adobe Illustrator 29.5.1, SVG Export Plug-In . SVG Version: 9.03 Build 0)  -->
<svg version="1.0" id="Capa_1" xmlns="http://www.w3.org/2000/svg" xmlns:xlink="http://www.w3.org/1999/xlink" x="0px" y="0px"
	 viewBox="0 0 37.55 90.9" style="enable-background:new 0 0 37.55 90.9;" xml:space="preserve">
<style type="text/css">
	.st0{fill:none;stroke:#000000;stroke-miterlimit:10;}
	.st1{fill:none;stroke:#000000;stroke-width:0.75;stroke-miterlimit:10;}
	.st2{fill:none;}
	.st3{stroke:#000000;stroke-miterlimit:10;}
</style>
<g transform="translate(-3.000000,91.423107) scale(0.100000,-0.100000)">
	<path d="M403,913c-6,4-22-2-36-14c-25-19-28-19-58-3c-23,12-50,15-95,12c-52-3-70-9-101-34c-53-43-83-105-83-171
		c0-68,18-110,63-150c47-41,98-57,162-49c45.82,4.77,52.46,4.03,61.67-15.18c9.42-10.41,20.75-20.97,18.51-35.34
		c-2.38-15.24-9.92-29.25-14.99-43.76c-3.72-17.17-9.61-15.66-38.18-7.72c-90,25-165-11-209-99c-45-92-17-190,69-243
		c39-23,112-32,160-19c45,12,57,7,38-16c-22-26-5-26,20,0c18,19,20,27,11,38c-9,12-19,12-63,1c-91-24-125-18-181,35
		c-63,57-72,114-32,199c20,43,32,56,67,72c52,24,99,25,139,4c33.02-16.51,52.97-15.02,52.74,1.89c-3.13,2.07-6.21,4.34-8.76,7.06
		c-2.63,2.81-5.29,5.95-6.97,9.46c-0.08,0.17-0.13,0.29-0.2,0.46c-6.35,8.54-7.16,20.25-4.46,30.38c1.41,5.29,3.95,11.39,7.95,15.3
		c1.56,1.52,3.98,1.66,6.02,2.06c1.61,1.41,3.26,2.77,5.05,3.96c6.43,13.08,5.82,21.11-1.22,28.27c-0.02,0.01-0.03,0-0.05,0.01
		c-5.03,1.07-10.48,4.3-13.97,8.05c-3.25,3.5-5.79,7.48-6.99,12.17c-0.04,0.17-0.08,0.34-0.11,0.51c-0.26,1.26-0.81,5.47-0.91,6.78
		c-0.02,0.31-0.05,0.61-0.04,0.91c0.27,7.04,2.42,13.85,6.27,19.76c2.06,3.16,4.44,6.15,6.9,9.01c1.19,1.38,2.46,2.69,3.8,3.92
		c2.54,2.33,5.32,4.4,8.12,6.41c15.99,18.13-4.4,23.89-33.16,6.63c-16-9-40-17-53-17c-1.3,0.08-2.4,0.17-3.47,0.28
		c-1.06-0.11-2.11-0.3-3.17-0.39c-3.16-0.66-6.34-1.14-9.52-1.58c-10.95-2.81-22.59-4.38-33.49-1.35c-0.02,0.01-0.03,0.02-0.06,0.03
		c-11.09-1.54-27.14-0.56-44.29,3.01c-40.76,8.86-98.69,62.44-111.39,98.89c-0.59,0.56-1.09,1.25-1.31,2.21
		c-0.3,1.3-0.44,2.59-0.71,3.89c-4.67,9.54-9.12,20.05-10.48,30.56L50,665l0.09,0.87c-0.81,6.55-0.43,13.08,2.02,19.39L55,713
		c2.22,21.62,6.42,41.26,12.33,59.06c0.15,0.78,0.28,1.56,0.43,2.35c0.2,1.03,0.67,1.74,1.23,2.32
		C93.05,844.09,143.9,882.54,218,888c43,2,67-2,96-17c41-21,56-20,56,5c0,8,10,18,22,23C404,903,409,909,403,913z"/>
	<path d="M224,875c-25.75,0-48.64-4.84-68.72-14.4c-0.77-1.26-2.05-2.21-3.99-2.21c-0.08,0-0.13,0.04-0.21,0.04
		c-32.66-16.98-57.47-47.06-74.31-90.09c-7.16-37.94-13.75-75.99-9.23-114.23c0.87-3.54,1.61-7.1,2.24-10.67
		C73.1,638.27,77.42,630.53,83,620c13-27,35-50,57-62c19-10,51-18,70-18c4.81-0.18,8.82-0.41,12.2-0.7
		c10.52-0.13,21.46-0.44,32.32,0.1c1.39,0.42,2.79,0.84,4.14,1.27c12.62,4,24.73,9.33,37.1,14c1.95,0.74,3.48,0.16,4.54-0.95
		c13.22,6.1,25.86,13.47,37.99,21.5c16.99,16.23,27.67,37.91,37.7,70.78C412,771,343,875,224,875z M260,582
		c-24.84,0-41.05-4.84-53.72,1.74c-0.89-0.82-6.02,7.44-7.25,7.56c-5.09,0.49-9.79,2.49-14.17,5.06
		c-8.71,5.11-16.31,12.19-22.71,20.01c-3.38,1.59-7.57,4.46-12.15,8.63c-41,37-16,139,42,175c39,25,119,23,146-4c16-16,15-16-16-5
		c-38.58,13.13-79.82,7.37-107.75-14.46c0.4-1.46,0.15-3.07-1.35-4.42c-6.36-5.71-12.22-12.06-17.67-18.75
		c-9.56-18.16-19.44-36.09-23.62-56.46c-0.01-0.05-0.04-0.07-0.05-0.12c-0.36-4.84-0.71-9.69-1.28-14.5
		c2.72-32.51,40.28-73.84,80.74-88.29C281,583,282,582,260,582z M327.3,609.58c-14.54-9.8-32.43-11.73-49.32-8.65
		c-9.97,1.82-19.52,6.38-28.67,10.52c-9.19,4.16-17.95,9.07-26.01,15.14c-13.18,9.94-24.2,22.62-30.29,37.41c0,0,0,0,0,0
		c-1.01,0.76-1.37,1.96-1.19,3.44c-2.89,8.23-4.39,17.02-3.75,26.39c1.67,24.41,13.57,48.2,31.63,64.73
		c17.16,15.71,40.26,24.59,62.49,18.73c7.11,2.41,14.65,3.52,22.65,2.71c9.38-0.94,17.92-3.14,26.22-7.83
		c27.56-15.59,37.87-50.39,36.59-80.24C366.29,660.43,354.3,627.79,327.3,609.58z"/>
	<path d="M292.16,440.53c0.4,2.49,1.08,4.93,1.2,7.46c0.08,1.67-0.48,4.26-0.73,6.24c-1.11,8.58-1.71,19.69,3.88,27
		c-3.69,22.58-13.37,27.58-22.5,4.76c-8-21-1-69,11-73c3.5-1.17,6.64,4.62,9.06,14.69C292.13,431.58,291.39,435.7,292.16,440.53z"/>
	<path d="M152.13,444.1c-5.75,11.8-2.89,27.14,7.23,35.74c0.8,0.68,1.7,1.04,2.61,1.22c-3.48,6.66-10.7,6.22-19.98-3.06
		c-16-16-15-35,2-41c5.06-2.25,9.45-0.91,12.89,3.44c-0.21,0.41-0.32,0.86-0.52,1.28C154.64,441.77,152.88,442.57,152.13,444.1z"/>
	<path d="M205.25,478.46C201.87,492.75,194,494.25,185,480c-8-12,3-50,14-50c2,0,4,3.5,5.5,9.01
		C199.2,451.75,197.24,466.7,205.25,478.46z"/>
	<path d="M245.2,441.59c-1.66,7.06-2.8,14.79-1.92,22.04c0.4,3.32,1.09,6.89,3.54,9.37c1.68,1.7,3.73,2.29,5.83,2.22
		c6.1,11,3.95,14.78-6.65,14.78c-8,0-18-5-21-11c-9-14,3-59,16-59c4.89,0,7.72,5.35,7.01,13.26
		C246.79,435.93,245.86,438.76,245.2,441.59z"/>
	<path d="M95,469c-10-15,3-25,16-12c7,7,7,13,1,17C106,477,98,475,95,469z"/>
	<path d="M184,370c-54-22-100-114-91-182c20-150,258-162,298-15C423,291,293,414,184,370z M272,96c-27-9-87,17-106,46
		c-10.53,16.07-16.9,39.32-17.89,57.16c-3.63,13.7-2.27,29.41-0.02,42.66c0.71,4.19,1.63,8.66,2.85,13.15
		c0.95,5.72,2.37,12.15,4.69,18.27c1.36,10.27-0.82,16.76-5.63,16.76c-6,0-8,5-4,11c5,8,8,8,13,0s14-4,27,10c22,24,50,38,79,38
		c14,0,9-6-17-20c-45-23-58-45-58-99c0-50,30-97,73-115C291,103,292,102,272,96z M377.34,161.22c-8.8-20.32-23.39-34.69-43.74-42.84
		c-1.88-0.75-3.84-1.45-5.85-2.09c-2.22-0.9-4.61-1.53-7.16-1.9c-11.7-2.64-24.46-2.98-35.21,0.97c-4.38,1.61-8.09,3.86-11.45,6.39
		c-0.51,0.05-1.03,0.05-1.54,0.12c-45.41,6.88-63.04,63.41-62.06,102.77c0.42,17.03,4.07,32.89,12.75,46.95
		c8.54,29.33,26.77,58.38,59.83,55.52c0.23-0.02,0.44-0.09,0.68-0.11c18.64,5.45,36.2-5.34,49.35-17.52
		c0.21-0.19,0.42-0.42,0.63-0.61c7.69-3.35,14.79-8.29,20.92-15.32c14.3-16.4,22.92-36.9,29-57.59
		C390.8,211.03,387.54,184.78,377.34,161.22z"/>
</g>
<path class="st0" d="M14.04,60.26c-1.92,0.88-3.23,2.87-3.48,4.95"/>
<path class="st0" d="M13,60.02c-1.24,1.42-2.23,3.06-2.92,4.81"/>
<path class="st0" d="M10.18,69.47c-0.1-4.7,2.45-8.09,5.86-10.94c-3.19,2.04-5.72,7.08-5.98,10.81c0.31-4.45,2.74-8.71,6.41-11.24"
	/>
<path class="st0" d="M26.07,58.02c-2.64-0.03-4.8,2.16-6.05,4.49c-1.8,3.35-2.41,7.42-1.2,11.03c1.21,3.61,4.39,6.6,8.15,7.16"/>
<path class="st0" d="M27.84,57.89c3.56,1.44,5.89,5.04,6.79,8.77c0.64,2.66,0.67,5.52-0.24,8.11c-0.91,2.59-2.81,4.87-5.33,5.96"/>
<path class="st0" d="M10.72,66.25c0.5-2.98,2.48-5.67,5.18-7.04c-2.23,2.03-3.84,4.82-4.87,7.65"/>
<path class="st0" d="M20.75,13.01c-2.21,0.74-3.95,2.58-4.9,4.72c-0.95,2.13-1.16,4.53-0.97,6.86"/>
<path class="st0" d="M28.31,39.52c-0.52,2.35,0.73,4.97,2.87,6.05c-2.4,1.75-3.22,5.36-1.8,7.97"/>
<path class="st0" d="M30.7,47.14c-0.92,0.98-1.49,2.28-1.58,3.62"/>
<path class="st0" d="M35.68,68.17c0.23,2.69-0.3,5.45-1.51,7.86"/>
<path class="st0" d="M10.08,18.05c-1.31,3.01-0.43,7.79,1.31,10.28c0.7,1,1.79,1.95,2.65,2.81c1.07,1.07,2.13,1.45,3.59,1.9
	c3.4,1.07,6.37,0.36,8.92-0.03"/>
<path class="st0" d="M9.71,24.3c0.29,1.57,0.79,3.1,1.47,4.54"/>
<line class="st1" x1="26.65" y1="57.89" x2="26.96" y2="81.34"/>
<line class="st1" x1="28" y1="57.87" x2="28.32" y2="81.32"/>
<path class="st1" d="M18.29,51.54"/>
<line class="st1" x1="25.41" y1="57.89" x2="25.72" y2="80.73"/>
<line class="st1" x1="30.5" y1="58.58" x2="30.8" y2="81"/>
<line class="st1" x1="31.87" y1="59.53" x2="32.13" y2="79.02"/>
<line class="st1" x1="29.25" y1="57.55" x2="29.57" y2="81"/>
<line class="st1" x1="22.57" y1="59.21" x2="22.83" y2="79.02"/>
<line class="st1" x1="23.9" y1="58.02" x2="24.2" y2="79.81"/>
<polyline class="st1" points="21.34,59.53 21.48,77.63 32.56,77.63 "/>
<line class="st1" x1="19.23" y1="62" x2="19.41" y2="75.94"/>
<line class="st1" x1="33.05" y1="61.85" x2="33.28" y2="79.02"/>
<line class="st1" x1="20.28" y1="61.66" x2="20.49" y2="77.45"/>
<line class="st1" x1="34.69" y1="65.44" x2="34.23" y2="74.82"/>
<path class="st1" d="M21.39,59.66c0.13-0.03,8.18-0.45,8.18-0.45"/>
<line class="st1" x1="20.78" y1="61.03" x2="31.66" y2="60.69"/>
<line class="st1" x1="17.55" y1="68.73" x2="35.42" y2="68.73"/>
<path class="st1" d="M18.18,73.12c0,0,17.01,0.25,17,0.28"/>
<line class="st1" x1="20.05" y1="63.25" x2="33.05" y2="63.04"/>
<line class="st1" x1="17.55" y1="67.28" x2="35.42" y2="67.28"/>
<line class="st1" x1="17.13" y1="65.92" x2="35" y2="65.92"/>
<line class="st1" x1="16.63" y1="64.54" x2="34.5" y2="64.54"/>
<line class="st1" x1="17.08" y1="70.13" x2="34.95" y2="70.13"/>
<line class="st1" x1="17.13" y1="71.41" x2="35" y2="71.41"/>
<line class="st1" x1="18.06" y1="74.82" x2="34.69" y2="74.82"/>
<line class="st1" x1="19.09" y1="76.18" x2="34.5" y2="76.18"/>
<line class="st1" x1="23.1" y1="79.02" x2="32.5" y2="79.02"/>
<line class="st1" x1="20.32" y1="62.15" x2="31.66" y2="61.83"/>
<line class="st1" x1="25.25" y1="12.31" x2="25.55" y2="34.86"/>
<line class="st1" x1="26.6" y1="12.31" x2="26.9" y2="34.83"/>
<line class="st1" x1="24.01" y1="12.31" x2="24.31" y2="34.24"/>
<line class="st1" x1="29.23" y1="12.83" x2="29.39" y2="34.52"/>
<line class="st1" x1="30.46" y1="13.05" x2="30.72" y2="32.53"/>
<line class="st1" x1="27.86" y1="12.31" x2="28.16" y2="34.52"/>
<line class="st1" x1="21.16" y1="12.73" x2="21.4" y2="30.76"/>
<line class="st1" x1="22.65" y1="12.57" x2="22.79" y2="31.52"/>
<line class="st1" x1="20.9" y1="31.15" x2="31.14" y2="31.15"/>
<line class="st1" x1="31.64" y1="14.78" x2="31.86" y2="30.93"/>
<line class="st1" x1="19.48" y1="14.95" x2="19.67" y2="29.24"/>
<line class="st1" x1="19.37" y1="14.55" x2="30.25" y2="14.21"/>
<line class="st1" x1="15.23" y1="22.24" x2="34.01" y2="22.24"/>
<path class="st1" d="M16.77,26.63c0,0,17.01,0.25,17,0.28"/>
<line class="st1" x1="18" y1="16.78" x2="31.64" y2="16.55"/>
<line class="st1" x1="15.67" y1="20.79" x2="34.01" y2="20.79"/>
<line class="st1" x1="15.72" y1="19.44" x2="33.59" y2="19.44"/>
<line class="st1" x1="15.22" y1="18.05" x2="33.09" y2="18.05"/>
<line class="st1" x1="15.67" y1="23.65" x2="34.5" y2="23.65"/>
<line class="st1" x1="15.72" y1="24.92" x2="33.59" y2="24.92"/>
<line class="st1" x1="18.06" y1="28.18" x2="33.28" y2="28.34"/>
<line class="st1" x1="18.77" y1="29.7" x2="33.09" y2="29.7"/>
<line class="st1" x1="18.09" y1="15.83" x2="30.25" y2="15.35"/>
<line class="st1" x1="32.94" y1="16.23" x2="33.11" y2="28.85"/>
<line class="st1" x1="18.09" y1="15.83" x2="18.26" y2="28.45"/>
<line class="st1" x1="16.56" y1="17.35" x2="16.68" y2="26.72"/>
<path class="st1" d="M1.22,21.15c-0.07-0.1-0.03-0.26,0.07-0.31"/>
<path class="st1" d="M1.69,19.37c-0.02,0.27-0.03,0.55-0.02,0.82c0.02,0.5,0.08,1,0.15,1.49c0.34,2.46,0.31,5.23,1.42,7.31
	c1.17,2.19,2.65,4.66,4.44,6.39"/>
<path class="st2" d="M22.06,40.12c-0.02,0-0.04,0-0.06,0"/>
<path class="st3" d="M17.53,39.4c9.22-0.87,9.22-1.49,15.44-2.98"/>
<path class="st0" d="M21.94,37.02c2.84,0.5,6.36-2.38,8.51-3.4"/>
</svg>
